<svg id="Layer_1" data-name="Layer 1" xmlns="http://www.w3.org/2000/svg" viewBox="0 0 200 100"><defs><style>.cls-1{fill:#26406d;}</style></defs><path class="cls-1" d="M105.7,13.66H99.62a15,15,0,0,0-15,15v3.2H59.16v-3.2a15,15,0,0,0-15-15H38.09a17.6,17.6,0,0,0-17.61,17.6h0a17.62,17.62,0,0,0,15,17.41,17.61,17.61,0,0,0-15,17.4h0A17.6,17.6,0,0,0,38.09,83.68h6.08a15,15,0,0,0,15-15V67.05H84.63v1.64a15,15,0,0,0,15,15h6.08a17.61,17.61,0,0,0,17.61-17.61h0a17.62,17.62,0,0,0-13.69-17.16v-.49a17.61,17.61,0,0,0,13.69-17.16h0A17.61,17.61,0,0,0,105.7,13.66Z"/><path class="cls-1" d="M177,19.39a2.71,2.71,0,0,0-.4,0H155.69a2.71,2.71,0,0,0-.41,0h-.13a2.45,2.45,0,0,0-2.45,2.45v24.1a2.45,2.45,0,0,0,2.45,2.45h0a2.46,2.46,0,0,0,2.46-2.45V28.3h17.45V46.61a1.79,1.79,0,0,0,3.57,0V21.17A1.79,1.79,0,0,0,177,19.39Z"/><path class="cls-1" d="M147,55a1.88,1.88,0,0,0,0-3.76H127.48a1.65,1.65,0,0,0-1.64,1.64V78.71a1.64,1.64,0,0,0,.49,1.16,1.51,1.51,0,0,0,1.12.5h19.88a1.52,1.52,0,0,0,1.52-1.53v-.22a1.52,1.52,0,0,0-1.52-1.52h-12.9V55Z"/><path class="cls-1" d="M176.63,55a1.88,1.88,0,0,0,0-3.76H155.46a1.65,1.65,0,0,0-1.64,1.64V65a1.62,1.62,0,0,0,.07.44.78.78,0,0,0,0,.16v.22a1.53,1.53,0,0,0,1.53,1.52h13.77V77.1H155.4a1.53,1.53,0,0,0-1.53,1.52v.22a1.53,1.53,0,0,0,1.53,1.53H177a1.52,1.52,0,0,0,1.53-1.53V65.57A1.53,1.53,0,0,0,177,64H163.05V55Z"/><rect class="cls-1" x="125.47" y="18.92" width="22.18" height="28.99" rx="6.34"/></svg>